{
	"asset":{
		"generator":"Khronos glTF Blender I/O v5.0.21",
		"version":"2.0"
	},
	"scene":0,
	"scenes":[
		{
			"name":"Scene",
			"nodes":[
				0,
				1,
				2,
				3
			]
		}
	],
	"nodes":[
		{
			"mesh":0,
			"name":"Floor",
			"scale":[
				15.580065727233887,
				0.30867117643356323,
				15.580065727233887
			]
		},
		{
			"mesh":1,
			"name":"Cube",
			"scale":[
				2.4133315086364746,
				0.08171403408050537,
				3.7045767307281494
			],
			"translation":[
				0,
				1.0269469022750854,
				10.366798400878906
			]
		},
		{
			"mesh":2,
			"name":"Table",
			"rotation":[
				0,
				0.5886159539222717,
				0,
				0.8084127902984619
			],
			"scale":[
				0.7131876945495605,
				0.7131876945495605,
				0.7131876945495605
			],
			"translation":[
				-8.282912254333496,
				2.542630910873413,
				7.934418678283691
			]
		},
		{
			"mesh":3,
			"name":"Cube.001",
			"scale":[
				0.12139087915420532,
				1,
				1
			],
			"translation":[
				0.3874778747558594,
				5.3243608474731445,
				2.697605848312378
			]
		}
	],
	"meshes":[
		{
			"name":"Cube.001",
			"primitives":[
				{
					"attributes":{
						"POSITION":0,
						"NORMAL":1,
						"TEXCOORD_0":2
					},
					"indices":3
				}
			]
		},
		{
			"name":"Cube.002",
			"primitives":[
				{
					"attributes":{
						"POSITION":4,
						"NORMAL":5,
						"TEXCOORD_0":6
					},
					"indices":7
				}
			]
		},
		{
			"name":"Cylinder",
			"primitives":[
				{
					"attributes":{
						"POSITION":8,
						"NORMAL":9,
						"TEXCOORD_0":10
					},
					"indices":11
				}
			]
		},
		{
			"name":"Cube.008",
			"primitives":[
				{
					"attributes":{
						"POSITION":12,
						"NORMAL":13,
						"TEXCOORD_0":14
					},
					"indices":15
				}
			]
		}
	],
	"accessors":[
		{
			"bufferView":0,
			"componentType":5126,
			"count":24,
			"max":[
				1,
				1,
				1
			],
			"min":[
				-1,
				-1,
				-1
			],
			"type":"VEC3"
		},
		{
			"bufferView":1,
			"componentType":5126,
			"count":24,
			"type":"VEC3"
		},
		{
			"bufferView":2,
			"componentType":5126,
			"count":24,
			"type":"VEC2"
		},
		{
			"bufferView":3,
			"componentType":5123,
			"count":36,
			"type":"SCALAR"
		},
		{
			"bufferView":4,
			"componentType":5126,
			"count":4248,
			"max":[
				1,
				1,
				1
			],
			"min":[
				-1,
				-24.989784240722656,
				-1
			],
			"type":"VEC3"
		},
		{
			"bufferView":5,
			"componentType":5126,
			"count":4248,
			"type":"VEC3"
		},
		{
			"bufferView":6,
			"componentType":5126,
			"count":4248,
			"type":"VEC2"
		},
		{
			"bufferView":7,
			"componentType":5123,
			"count":6444,
			"type":"SCALAR"
		},
		{
			"bufferView":8,
			"componentType":5126,
			"count":1278,
			"max":[
				6.324984073638916,
				6.405606746673584,
				8.981697082519531
			],
			"min":[
				-6.324984073638916,
				-3.1415505409240723,
				-8.981689453125
			],
			"type":"VEC3"
		},
		{
			"bufferView":9,
			"componentType":5126,
			"count":1278,
			"type":"VEC3"
		},
		{
			"bufferView":10,
			"componentType":5126,
			"count":1278,
			"type":"VEC2"
		},
		{
			"bufferView":11,
			"componentType":5123,
			"count":5700,
			"type":"SCALAR"
		},
		{
			"bufferView":12,
			"componentType":5126,
			"count":60,
			"max":[
				1,
				2.0687875747680664,
				1
			],
			"min":[
				-1,
				-1,
				-1
			],
			"type":"VEC3"
		},
		{
			"bufferView":13,
			"componentType":5126,
			"count":60,
			"type":"VEC3"
		},
		{
			"bufferView":14,
			"componentType":5126,
			"count":60,
			"type":"VEC2"
		},
		{
			"bufferView":15,
			"componentType":5123,
			"count":108,
			"type":"SCALAR"
		}
	],
	"bufferViews":[
		{
			"buffer":0,
			"byteLength":288,
			"byteOffset":0,
			"target":34962
		},
		{
			"buffer":0,
			"byteLength":288,
			"byteOffset":288,
			"target":34962
		},
		{
			"buffer":0,
			"byteLength":192,
			"byteOffset":576,
			"target":34962
		},
		{
			"buffer":0,
			"byteLength":72,
			"byteOffset":768,
			"target":34963
		},
		{
			"buffer":0,
			"byteLength":50976,
			"byteOffset":840,
			"target":34962
		},
		{
			"buffer":0,
			"byteLength":50976,
			"byteOffset":51816,
			"target":34962
		},
		{
			"buffer":0,
			"byteLength":33984,
			"byteOffset":102792,
			"target":34962
		},
		{
			"buffer":0,
			"byteLength":12888,
			"byteOffset":136776,
			"target":34963
		},
		{
			"buffer":0,
			"byteLength":15336,
			"byteOffset":149664,
			"target":34962
		},
		{
			"buffer":0,
			"byteLength":15336,
			"byteOffset":165000,
			"target":34962
		},
		{
			"buffer":0,
			"byteLength":10224,
			"byteOffset":180336,
			"target":34962
		},
		{
			"buffer":0,
			"byteLength":11400,
			"byteOffset":190560,
			"target":34963
		},
		{
			"buffer":0,
			"byteLength":720,
			"byteOffset":201960,
			"target":34962
		},
		{
			"buffer":0,
			"byteLength":720,
			"byteOffset":202680,
			"target":34962
		},
		{
			"buffer":0,
			"byteLength":480,
			"byteOffset":203400,
			"target":34962
		},
		{
			"buffer":0,
			"byteLength":216,
			"byteOffset":203880,
			"target":34963
		}
	],
	"buffers":[
		{
			"byteLength":204096,
			"uri":"PirateRoom.bin"
		}
	]
}
